<?xml version="1.0" encoding="utf-8"?>
<!-- Generator: Adobe Illustrator 16.0.0, SVG Export Plug-In . SVG Version: 6.00 Build 0)  -->
<!DOCTYPE svg PUBLIC "-//W3C//DTD SVG 1.1//EN" "http://www.w3.org/Graphics/SVG/1.1/DTD/svg11.dtd">
<svg version="1.1" id="Layer_1" xmlns="http://www.w3.org/2000/svg" xmlns:xlink="http://www.w3.org/1999/xlink" x="0px" y="0px"
	 width="100px" height="76.4px" viewBox="2.26 1.86 100 76.4" enable-background="new 2.26 1.86 100 76.4" xml:space="preserve">
<g>
	<g>
		<rect x="18.697" y="15.101" fill="#1E64C8" width="1.999" height="12.952"/>
		<rect x="14.7" y="15.101" fill="#1E64C8" width="1.999" height="12.952"/>
		<rect x="10.718" y="15.101" fill="#1E64C8" width="1.999" height="12.952"/>
		<rect x="6.721" y="15.101" fill="#1E64C8" width="1.999" height="12.952"/>
		<rect x="22.679" y="15.101" fill="#1E64C8" width="1.999" height="12.952"/>
		<rect x="26.661" y="15.101" fill="#1E64C8" width="1.999" height="12.952"/>
		<rect x="30.658" y="15.101" fill="#1E64C8" width="1.999" height="12.952"/>
		<rect x="4.69" y="30.035" fill="#1E64C8" width="30.013" height="1.999"/>
		<polygon fill="#1E64C8" points="32.657,13.101 6.721,13.101 4.738,11.103 34.64,11.103 		"/>
		<rect x="2.691" y="34.017" fill="#1E64C8" width="33.995" height="1.998"/>
	</g>
</g>
<polygon fill="#1E64C8" points="36.686,7.888 19.689,1.86 2.691,7.888 2.691,9.999 19.689,3.987 36.686,9.999 "/>
<path fill="#1E64C8" d="M62.894,45.431c0.881,0,1.71,0.289,2.096,0.591v-1.79c-0.384-0.24-1.312-0.496-2.271-0.496
	c-2.654,0-4.109,1.502-4.109,3.694c0,1.824,0.768,2.701,2.014,3.772l1.137,0.977c0.943,0.782,1.519,1.391,1.519,2.559
	c0,1.374-0.912,1.918-2.271,1.918c-1.024,0-1.887-0.287-2.383-0.625v1.824c0.433,0.256,1.343,0.512,2.558,0.512
	c2.639,0,4.096-1.503,4.096-3.694c0-1.823-0.767-2.701-2.015-3.759l-1.135-0.973c-0.946-0.799-1.52-1.393-1.52-2.561
	C60.624,45.975,61.535,45.449,62.894,45.431z"/>
<path fill="#1E64C8" d="M2.691,53.843v-9.85H4.69v9.93c0,2.08,0.72,2.688,2.175,2.688c1.455,0,2.175-0.608,2.175-2.688v-9.93h1.999
	v9.85c0,3.214-1.343,4.508-4.158,4.508C3.986,58.351,2.691,57.086,2.691,53.843z"/>
<path fill="#1E64C8" d="M13.597,43.994h2.302l4.444,11.238c-0.144-1.149-0.288-2.492-0.288-3.758v-7.482h1.904v14.104h-2.303
	l-4.493-11.274c0.176,1.153,0.319,2.51,0.319,3.808v7.482H13.58V43.992h0.017V43.994z"/>
<path fill="#1E64C8" d="M24.806,43.994h1.999v14.102h-1.999V43.994z"/>
<path fill="#1E64C8" d="M28.644,43.994h2.077l1.776,7.339c0.256,1.101,0.592,2.972,0.783,4.445c0.192-1.474,0.528-3.345,0.833-4.445
	l1.758-7.339h2.015l-3.582,14.102h-2.078L28.644,43.994z"/>
<path fill="#1E64C8" d="M39.74,43.994h6.587v1.697h-4.604v4.315h3.726v1.662h-3.71v4.734h4.605v1.695h-6.589V43.995L39.74,43.994
	L39.74,43.994z"/>
<path fill="#1E64C8" d="M48.647,43.994h3.261c2.604,0,4.463,0.973,4.463,4.171c0,2.239-1.089,3.31-2.449,3.824l2.992,6.124h-2.271
	l-2.654-5.758h-1.343v5.758h-1.999V43.994z M50.646,45.691v4.97h1.071c1.565,0,2.604-0.335,2.604-2.496
	c0-2.143-1.039-2.477-2.604-2.477h-1.071V45.691z"/>
<path fill="#1E64C8" d="M67.659,43.994h1.998v14.102h-1.998V43.994z"/>
<path fill="#1E64C8" d="M71.543,43.994h8.094v1.697h-3.055v12.407h-1.999V45.691h-3.038v-1.697H71.543z"/>
<path fill="#1E64C8" d="M81.473,43.994h6.588v1.697h-4.604v4.315h3.707v1.662h-3.707v4.734h4.604v1.695h-6.588V43.994z"/>
<path fill="#1E64C8" d="M90.349,43.994h1.998v14.102h-1.998V43.994z"/>
<path fill="#1E64C8" d="M94.169,43.994h8.091v1.697h-3.052v12.407H97.21V45.691h-3.039v-1.697H94.169z"/>
<path fill="#1E64C8" d="M2.26,70.937c0-5.55,1.471-7.308,5.133-7.308c1.039,0,2.143,0.289,2.622,0.561v1.838
	c-0.528-0.303-1.519-0.621-2.479-0.621c-2.334,0-3.23,0.861-3.23,5.53c0,4.622,0.624,5.579,2.67,5.579
	c0.624,0,1.151-0.079,1.535-0.188v-4.703H6.433v-1.693h4.077v7.611c-0.416,0.256-2.063,0.718-3.517,0.718
	C3.187,78.244,2.26,76.245,2.26,70.937z"/>
<path fill="#1E64C8" d="M12.909,63.882h6.588v1.697h-4.604v4.314h3.709v1.665h-3.709v4.731h4.604v1.698h-6.588V63.882z"/>
<path fill="#1E64C8" d="M21.798,63.882h2.303l4.446,11.243c-0.144-1.152-0.288-2.495-0.288-3.759v-7.484h1.902v14.102H27.86
	l-4.494-11.272c0.175,1.152,0.32,2.508,0.32,3.79v7.482h-1.904V63.882H21.798L21.798,63.882z"/>
<path fill="#1E64C8" d="M32.001,63.882h8.09v1.697h-3.053v12.409h-1.998V65.58h-3.039V63.882z"/>
</svg>
